<?xml version="1.0" encoding="UTF-8" standalone="no"?>
<!-- Created with Inkscape (http://www.inkscape.org/) -->

<svg
   version="1.1"
   width="64"
   height="64"
   viewBox="-32 -32 64 64"
   xmlns:xlink="http://www.w3.org/1999/xlink"
   xmlns="http://www.w3.org/2000/svg"
   xmlns:svg="http://www.w3.org/2000/svg">

  <mask id="line">
    <rect x="-32" y="-32" width="64" height="64" fill="white" />
    <line x1="0" y1="1" x2="32" y2="1" stroke-width="2" stroke="black" />
    <circle cx="0" cy="0" r="2" stroke-width="2" stroke="black" />
    <rect x="-32" y="16" width="32" height="16" fill="black" />
  </mask>

  <mask id="circle">
    <rect x="-32" y="-32" width="64" height="64" fill="white" />
    <circle cx="0" cy="0" r="34" fill="black" stroke="none" />
  </mask>

  <circle cx="0" cy="0" r="31" stroke-width="2" stroke="#0c446b" fill="none" mask="url(#line)" />
  <circle cx="0" cy="0" r="27"  stroke-width="2" stroke="#0f597c" fill="none" mask="url(#line)" />
  <circle cx="0" cy="0" r="23"  stroke-width="2" stroke="#0f6f8d" fill="none" mask="url(#line)" />
  <circle cx="0" cy="0" r="19"  stroke-width="2" stroke="#0b859e" fill="none" mask="url(#line)" />

  <g stroke="#019cb0" mask="url(#line)">
    <line x1="-15" y1="0" x2="0" y2="0" stroke-width="2" stroke-linecap="round" />
    <line x1="-15" y1="0" x2="15" y2="0" stroke-width="2" stroke-linecap="round" transform="rotate(60)" />
    <line x1="-15" y1="0" x2="15" y2="0" stroke-width="2" stroke-linecap="round" transform="rotate(120)" />

    <line x1="-9.27" y1="0" x2="9.27" y2="0" stroke-width="2" stroke-linecap="round" transform="rotate(30)" />
    <line x1="-9.27" y1="0" x2="9.27" y2="0" stroke-width="2" stroke-linecap="round" transform="rotate(90)" />
    <line x1="-9.27" y1="0" x2="9.27" y2="0" stroke-width="2" stroke-linecap="round" transform="rotate(150)" />
  </g>

  <line x1="0" y1="0" x2="32" y2="0" stroke-width="2" stroke="#019cb0" />
  <circle cx="0" cy="0" r="2" stroke="none" fill="#019cb0" />

  <g mask="url(#circle)">
    <line x1="0" y1="31" x2="32" y2="31" stroke-width="2" stroke="#0c446b" />
    <line x1="0" y1="27" x2="32" y2="27" stroke-width="2" stroke="#0f597c" />
    <line x1="0" y1="23" x2="32" y2="23" stroke-width="2" stroke="#0f6f8d" />
    <line x1="0" y1="19" x2="32" y2="19" stroke-width="2" stroke="#0b859e" />
  </g>

  <line x1="-32" y1="31" x2="0" y2="31" stroke-width="2" stroke="#0c446b" />
  <line x1="-32" y1="27" x2="0" y2="27" stroke-width="2" stroke="#0f597c" />
  <line x1="-32" y1="23" x2="0" y2="23" stroke-width="2" stroke="#0f6f8d" />
  <line x1="-32" y1="19" x2="0" y2="19" stroke-width="2" stroke="#0b859e" />
</svg>

