<?xml version="1.0" encoding="UTF-8" standalone="no"?>
<!-- Created with Inkscape (http://www.inkscape.org/) -->

<svg
   version="1.1"
   id="svg1"
   width="170.04536"
   height="62.484009"
   viewBox="0 0 170.04537 62.484008"
   xmlns:xlink="http://www.w3.org/1999/xlink"
   xmlns="http://www.w3.org/2000/svg"
   xmlns:svg="http://www.w3.org/2000/svg">
  <defs
     id="defs1">
    <clipPath
       clipPathUnits="userSpaceOnUse"
       id="clipPath600">
      <path
         d="M 0,841.89 H 595.28 V 0 H 0 Z"
         transform="translate(-152.4532,-492.30031)"
         id="path600" />
    </clipPath>
  </defs>
  <g
     id="layer-MC0"
     transform="translate(-90.826881,-444.69294)">
    <path
       id="path599"
       d="M 0,0 C 0.203,-0.023 0.316,3.323 0.068,3.548 L -2.887,3.478 C -1.883,2.454 -1.009,1.286 -0.272,-0.016 -0.14,-0.011 -0.036,-0.005 0,0 m 0.294,11.391 c 0,3.006 -2.102,4.679 -5.086,4.679 -3.48,0 -5.062,-2.08 -5.108,-2.419 -0.045,-0.339 1.56,-2.26 1.989,-2.531 0.272,0.316 0.972,1.288 2.396,1.288 1.266,0 1.74,-0.813 1.74,-1.718 0,-1.245 -1.223,-2.674 -2.857,-4.375 0.997,-0.547 1.928,-1.183 2.777,-1.915 2.444,2.539 4.149,4.594 4.149,6.991 m 20.088,-26.2 c 1.238,3.499 3.552,11.464 4.305,14.155 0.108,0 0.216,0.053 0.323,0.053 0.7,-2.583 2.96,-10.387 4.306,-14.1 -2.207,0 -7.104,-0.054 -8.934,-0.108 M 30.661,8.172 C 29.316,8.441 18.821,8.118 18.337,7.795 17.853,7.472 7.412,-25.357 6.389,-29.232 c 0.646,-0.484 9.741,-1.13 10.01,-0.915 0.323,0.485 1.884,5.866 2.53,7.965 1.937,0 10.171,-0.054 11.463,0 0.646,-1.991 2.422,-7.104 2.853,-8.073 0.161,-0.107 8.826,0.269 9.956,0.969 -1.13,6.082 -12.378,37.404 -12.54,37.458 m -105.426,-29.6 c 0.161,3.444 0.323,27.716 0.215,29.492 -0.107,0.323 -9.149,0.054 -9.418,-0.269 -0.377,-1.937 -0.485,-33.367 -0.215,-37.511 1.829,-0.323 24.433,-0.323 24.487,-0.054 0.269,0.969 0.215,6.62 -0.215,8.395 -1.615,0.216 -10.172,0.108 -14.854,-0.053 m 58.498,-0.538 c -5.167,0 -8.45,4.736 -8.45,10.763 0,6.674 3.122,11.033 8.665,11.033 4.79,0 8.234,-3.444 8.234,-10.656 0,-6.727 -2.691,-11.14 -8.449,-11.14 m 6.774,21.943 c -0.113,0.068 -0.52,2.396 -0.429,2.871 1.127,1.273 2.286,2.421 3.29,3.467 -2.711,1.489 -5.938,2.288 -9.582,2.288 -12.324,0 -18.459,-9.526 -18.459,-19.267 0,-12.002 7.158,-20.129 18.621,-20.129 12.863,0 18.514,9.742 18.514,19.267 0,4.528 -0.974,8.398 -2.734,11.51 -1.547,-0.058 -9.096,-0.09 -9.221,-0.007 M -52.324,7.58 c -0.431,-5.167 -0.269,-33.744 -0.054,-37.566 0.054,-0.376 9.257,-0.753 9.58,0.216 0.376,3.444 0.43,35.197 0.053,37.458 -0.322,0.322 -7.857,0.538 -9.579,-0.108 M -4.656,3.436 -2.887,3.478 C -3.199,3.796 -3.517,4.109 -3.855,4.4 -4.13,4.113 -4.408,3.826 -4.701,3.526 Z"
       style="fill:#0c446b;fill-opacity:1;fill-rule:nonzero;stroke:none"
       transform="matrix(1.3333333,0,0,-1.3333333,203.27093,466.1196)"
       clip-path="url(#clipPath600)" />
  </g>
</svg>
